<svg width="40" height="40" viewBox="0 0 40 40" fill="none" xmlns="http://www.w3.org/2000/svg">
    <path d="M19.9818 5.08997C19.8704 5.13684 19.7005 5.24816 19.6126 5.33605C19.2904 5.64072 19.2494 5.77548 19.2201 6.71879L19.1908 7.59179L18.6518 7.69725C17.6206 7.90817 16.5015 8.38276 15.5289 9.02725C14.8434 9.48426 13.6657 10.6678 13.1911 11.3767C12.5701 12.3142 12.1248 13.3571 11.8787 14.4586C11.7791 14.9273 11.7615 15.2964 11.7205 17.7983C11.6736 20.9036 11.6443 21.2258 11.2811 22.3156C10.8358 23.6632 10.1679 24.7119 9.06635 25.8134C8.10546 26.7626 8 26.9677 8 27.8172C8 28.3387 8.01758 28.4383 8.15819 28.7313C8.46872 29.3582 9.08393 29.821 9.78115 29.9558C10.2323 30.0378 30.6804 30.0378 31.1491 29.9499C31.8171 29.8269 32.4323 29.3582 32.7428 28.7313C32.8834 28.4383 32.901 28.3387 32.901 27.8172C32.901 26.9735 32.7838 26.7509 31.8874 25.8662C31.1257 25.1162 30.7859 24.6885 30.3757 23.9971C29.8601 23.1359 29.5144 22.1925 29.327 21.1672C29.2391 20.7161 29.2156 20.0891 29.1805 17.7983C29.1453 15.2906 29.1277 14.9273 29.0223 14.4586C28.6297 12.7126 27.8856 11.3709 26.6084 10.0877C25.3428 8.82805 23.8956 8.03121 22.2492 7.69725L21.7102 7.59179L21.6809 6.71879C21.6516 5.77548 21.6106 5.64072 21.2883 5.33605C20.9485 5.00794 20.4036 4.90834 19.9818 5.08997Z" fill="white"/>
    <path d="M15.8804 31.3328C15.8804 31.5261 16.2436 32.3991 16.4897 32.7917C17.4975 34.3971 19.4544 35.2642 21.2824 34.9127C22.5656 34.6666 23.6378 33.9518 24.3643 32.8561C24.6221 32.4694 25.0146 31.5672 25.0205 31.3445C25.0205 31.2508 24.7627 31.2449 20.4504 31.2449C16.4663 31.2449 15.8804 31.2566 15.8804 31.3328Z" fill="white"/>
</svg>
