<svg width="40" height="40" viewBox="0 0 40 40" fill="none" xmlns="http://www.w3.org/2000/svg">
    <path d="M22.5 3.125C21.7188 3.90625 21.6875 4.8125 22.4688 5.59375C23.0625 6.1875 23.0625 6.21875 21.7812 6.40625C17.0938 7.1875 12.7812 11.5 12.0312 16.1562L11.8125 17.5H23.75H35.6875L35.4688 16.3438C34.5625 11.375 30.8438 7.4375 26.2188 6.53125C24.4688 6.1875 24.4688 6.15625 25.0312 5.59375C25.8125 4.8125 25.7812 3.90625 25 3.125C24.6562 2.78125 24.0938 2.5 23.75 2.5C23.4062 2.5 22.8438 2.78125 22.5 3.125ZM25.4688 8.125C25.4688 8.6875 23.8438 8.96875 23.375 8.5C22.8438 7.96875 23.4375 7.46875 24.4688 7.5625C25.0938 7.625 25.4688 7.8125 25.4688 8.125ZM29.5 9.3125C31.9688 10.9688 34.5625 14.875 33.9062 15.9375C33.5 16.5625 33.0938 16.2188 32.375 14.5938C31.4375 12.4688 30.0625 10.9062 28.2812 9.96875C26.9375 9.25 26.625 8.8125 27.0938 8.34375C27.4375 7.96875 27.6875 8.09375 29.5 9.3125Z" fill="white"/>
    <path d="M10.1562 19.0939C10.0312 19.2814 10.0625 19.5626 10.2187 19.7189C10.375 19.8751 16 19.9689 23.9375 19.9376C35.5937 19.8439 37.3437 19.7814 37.3437 19.3751C37.3437 18.9689 35.5937 18.9064 23.8437 18.8126C14.3125 18.7814 10.2812 18.8439 10.1562 19.0939Z" fill="white"/>
    <path d="M12.3125 21.75C12.4063 22.0312 12.5938 22.5938 12.6875 23L12.875 23.75H23.75H34.625L34.8125 23C34.9063 22.5938 35.0938 22.0312 35.1875 21.75C35.375 21.3125 34.25 21.25 23.75 21.25C13.25 21.25 12.125 21.3125 12.3125 21.75Z" fill="white"/>
    <path d="M8.125 32.5V37.5H10H11.875V32.5V27.5H10H8.125V32.5ZM10.4688 35.9375C10.4688 36.7812 9.78125 37.1562 9.5 36.4375C9.25 35.75 9.59375 34.9062 10.0938 35.0938C10.2812 35.1562 10.4688 35.5312 10.4688 35.9375Z" fill="white"/>
    <path d="M15.0938 28.6875L13.125 29.1562V32.5625V35.9688L14.2188 36.4375C15 36.75 16.6875 36.875 20.6875 36.875H26.0625L31.0938 34C37.7813 30.1875 37.875 30.125 37.75 29.0938C37.5938 27.7188 36.5625 27.9062 33.0313 30C30.25 31.5938 29.75 32.0312 29.5625 32.8438C29.4375 33.5312 29.0938 33.9062 28.3438 34.2188C27.375 34.625 26.9688 34.5625 23.2813 33.5938C19.125 32.4688 18.375 32.125 18.9688 31.5312C19.1875 31.3125 20.4688 31.5312 23.3125 32.3125C27.625 33.4688 28.4375 33.4375 28.4375 32.0312C28.4375 31.625 28.3125 31.2188 28.1563 31.0938C27.7813 30.9062 17.4375 28.0938 17.1875 28.1562C17.0938 28.1875 16.1563 28.4062 15.0938 28.6875Z" fill="white"/>
    <path d="M3.125 32.5V36.25H5H6.875V32.5V28.75H5H3.125V32.5Z" fill="white"/>
</svg>
