<svg width="40" height="40" viewBox="0 0 40 40" fill="none" xmlns="http://www.w3.org/2000/svg">
    <path d="M13.8672 1.98475C13.5391 2.12537 13.2187 2.52381 13.1562 2.87537C13.1016 3.15662 13.5469 14.0004 13.6562 15.1176L13.7109 15.6644L14.3594 15.9301C14.7109 16.0785 15.0156 16.1801 15.0312 16.1644C15.1016 16.0941 15.6484 3.14881 15.5937 2.87537C15.4531 2.11756 14.5859 1.67225 13.8672 1.98475Z" fill="white"/>
    <path d="M19.5312 6.29674C18.1797 6.42174 16.7188 6.71861 16.7188 6.87486C16.7188 6.98424 17.4141 7.17174 18.3906 7.32018C19.4766 7.49205 22.7891 7.51549 23.8672 7.35924C24.7656 7.22643 25.9375 6.9608 25.9375 6.87486C25.9375 6.79674 25.0781 6.5858 24.1484 6.43736C23.4219 6.32018 20.2891 6.22643 19.5312 6.29674Z" fill="white"/>
    <path d="M25.4297 8.33594C25.0469 8.4375 24.3047 8.55469 23.7891 8.60156C23.2734 8.64844 22.7734 8.70312 22.6797 8.71875C22.5 8.75 22.5 8.76562 22.5 10.0391C22.5 11.2656 22.5078 11.3281 22.6797 11.5312C22.9375 11.8203 23.3125 11.8203 23.5703 11.5312C23.6641 11.4141 23.75 11.2344 23.75 11.1406C23.75 11.0391 23.8203 10.8672 23.9141 10.75C24.0391 10.5937 24.1406 10.5469 24.375 10.5469C24.6094 10.5469 24.7109 10.5937 24.8359 10.75C24.9766 10.9297 25 11.0703 25 11.7656C25 12.4922 25.0156 12.5859 25.1797 12.7812C25.4375 13.0703 25.8125 13.0703 26.0703 12.7812C26.25 12.5703 26.25 12.5625 26.25 10.3437C26.25 9.125 26.2266 8.13281 26.1953 8.13281C26.1562 8.14062 25.8203 8.23437 25.4297 8.33594Z" fill="white"/>
    <path d="M16.6407 8.44531C16.6485 8.54687 16.5704 10.4297 16.4688 12.6328C16.3751 14.8359 16.3126 16.6562 16.3438 16.6797C16.4298 16.7656 17.9298 17.2734 19.1329 17.625C21.1719 18.2187 23.2423 18.5703 25.4923 18.7109L26.2501 18.7578V16.4609V14.1562L25.961 14.2266C25.1407 14.4141 24.1407 13.8203 23.8126 12.9531C23.7969 12.9219 23.6485 12.9297 23.4766 12.9687C22.7501 13.1406 21.8751 12.7266 21.4844 12.0312C21.2969 11.6953 21.2891 11.6094 21.2657 10.2109L21.2344 8.75H20.7188C19.6954 8.75 18.0782 8.5625 16.8985 8.3125C16.6641 8.26562 16.6407 8.28125 16.6407 8.44531Z" fill="white"/>
    <path d="M27.5 9.99219V10.625H28.1094C29.0156 10.625 29.4688 10.7891 29.9688 11.2891C30.2891 11.6094 30.4062 11.7969 30.5156 12.1484C30.8203 13.2188 30.3672 14.2656 29.375 14.7734C29.1016 14.9141 28.8594 14.9609 28.2656 14.9844L27.5 15.0156V15.6406V16.2656L28.7344 16.2344C29.7891 16.2109 30.0156 16.1875 30.3281 16.0391C30.8438 15.8047 31.3672 15.2891 31.6172 14.7734C31.8359 14.3359 31.8359 14.3203 31.8359 12.7734C31.8359 11.2266 31.8359 11.2031 31.625 10.8125C31.3125 10.2188 31.0781 9.97656 30.5312 9.67969L30.0391 9.41406L28.7734 9.39062L27.5 9.35938V9.99219Z" fill="white"/>
    <path d="M11.1093 11.3358C10.7265 11.4451 10.1874 12.0233 10.0781 12.4373C9.8593 13.2264 10.2109 14.0233 10.9374 14.3904C11.539 14.6951 12.3437 15.0311 12.3671 14.992C12.3749 14.9764 12.3515 14.1326 12.3046 13.1248L12.2265 11.2889L11.7968 11.2733C11.5624 11.2654 11.2499 11.2967 11.1093 11.3358Z" fill="white"/>
    <path d="M27.5 12.8125V13.7656L28.1641 13.7422C28.7891 13.7109 28.8359 13.6953 29.0781 13.4531C29.2969 13.2344 29.3359 13.1484 29.3359 12.8125C29.3359 12.4766 29.2969 12.3906 29.0781 12.1719C28.8359 11.9297 28.7891 11.9141 28.1641 11.8828L27.5 11.8594V12.8125Z" fill="white"/>
    <path d="M10.0938 16.1406C10.3359 19.1172 11.3828 22.1562 13.0703 24.7422C13.4375 25.3047 13.5859 25.4688 13.7188 25.4688C14.125 25.4688 16.4531 25.1406 17.6172 24.9141C20.125 24.4375 22.7734 23.6484 25.1172 22.6875C26.5859 22.0781 29.5938 20.5625 29.6406 20.4062C29.7109 20.1641 29.8438 19.3438 29.8438 19.1562V18.9688L29.5938 19.1406C29.1016 19.4688 28.375 19.7578 27.7266 19.8906C26.3281 20.1719 22.8828 19.8594 20.1406 19.1875L19.375 19.0078V19.9453C19.375 21.1328 19.2891 21.4219 18.7891 21.9141C18.2734 22.4375 17.5703 22.6406 17.0078 22.4297C16.8438 22.3672 16.8047 22.3906 16.6875 22.6562C16.4219 23.2578 15.6641 23.75 15 23.75C14.2812 23.75 13.4219 23.125 13.2188 22.4531C13.1562 22.2266 13.125 21.3203 13.125 19.4453V16.7578L11.6172 16.0703C10.7891 15.6953 10.0938 15.3906 10.0703 15.3906C10.0547 15.3906 10.0625 15.7266 10.0938 16.1406Z" fill="white"/>
    <path d="M14.375 19.7266V22.1172L14.5703 22.3047C14.6875 22.4297 14.8516 22.5 15 22.5C15.1484 22.5 15.3125 22.4297 15.4297 22.3047C15.6172 22.125 15.625 22.0625 15.625 21.25C15.625 20.4375 15.6328 20.375 15.8203 20.1953C15.9375 20.0703 16.1016 20 16.25 20C16.3984 20 16.5625 20.0703 16.6797 20.1953C16.8047 20.3125 16.875 20.4766 16.875 20.625C16.875 21.1719 17.5469 21.4453 17.9297 21.0547C18.1172 20.875 18.125 20.8281 18.125 19.75V18.625L17.3281 18.3672C16.8828 18.2266 16.0625 17.9375 15.4922 17.7266C14.9297 17.5156 14.4453 17.3438 14.4219 17.3438C14.3984 17.3438 14.375 18.4141 14.375 19.7266Z" fill="white"/>
    <path d="M27.5 18.0859V18.6719L27.7188 18.625C28.1328 18.5234 28.8906 18.125 29.2266 17.8203L29.5703 17.5078L28.5391 17.5H27.5V18.0859Z" fill="white"/>
    <path d="M29.3594 22.0546L28.75 22.3828V23.8203C28.75 25.5468 28.7031 25.7578 28.1641 26.289C27.375 27.0859 26.375 27.0859 25.5859 26.289C25.1172 25.8281 25 25.4999 25 24.664V24.0781L24.375 24.3124L23.75 24.5546V26.7812C23.75 28.2968 23.7187 29.1093 23.6562 29.3281C23.5312 29.7578 22.8828 30.4062 22.4531 30.5312C21.7187 30.7499 21.1328 30.5937 20.5859 30.039C20.0391 29.4999 20 29.3203 20 27.3515C20 26.4453 19.9844 25.7031 19.9609 25.7031C19.9453 25.7031 19.4609 25.8046 18.8906 25.9374C15.6406 26.6562 10.4844 27.1093 9.35156 26.7656C8.89843 26.6328 8.89843 26.6171 9.21093 27.8281C9.59374 29.3046 10.2266 30.7109 11.0781 31.9765C11.5234 32.6406 12.3281 33.6406 12.7109 33.9999L12.9297 34.2109L15.7031 34.3046C18.4219 34.3984 25.1172 34.3593 25.7031 34.2499C25.9141 34.2109 26.1641 34.0078 26.7969 33.3671C28.3437 31.8124 29.2891 30.0546 29.7734 27.8203C29.9141 27.1718 29.9453 26.7343 29.9766 24.6484C30 23.3124 30 22.1171 29.9844 21.9765L29.9609 21.7265L29.3594 22.0546Z" fill="white"/>
    <path d="M26.8203 23.3047L26.25 23.5547V24.3984C26.25 25.1875 26.2578 25.25 26.4453 25.4297C26.5625 25.5547 26.7266 25.625 26.875 25.625C27.0234 25.625 27.1875 25.5547 27.3047 25.4297C27.4922 25.25 27.5 25.2031 27.5 24.1406C27.5 23.5391 27.4766 23.0469 27.4453 23.0547C27.4062 23.0547 27.125 23.1719 26.8203 23.3047Z" fill="white"/>
    <path d="M9.49221 23.2339C8.52346 23.6558 8.53128 25.1089 9.50784 25.5152C9.76565 25.6245 11.5782 25.6714 11.9297 25.5777C12.0938 25.5308 12.086 25.5152 11.7891 25.062C11.625 24.7964 11.3203 24.2574 11.1172 23.8589L10.7422 23.1245H10.2344C9.95315 23.1324 9.61721 23.1792 9.49221 23.2339Z" fill="white"/>
    <path d="M21.7812 25.1797L21.25 25.3438V27.1641V28.9922L21.4453 29.1797C21.5625 29.3047 21.7266 29.375 21.875 29.375C22.0234 29.375 22.1875 29.3047 22.3047 29.1797L22.5 28.9922V26.9922C22.5 25.4453 22.4766 25 22.4062 25.0078C22.3516 25.0156 22.0703 25.0938 21.7812 25.1797Z" fill="white"/>
    <path d="M29.797 31.4218C29.5001 32.0234 28.9454 32.8359 28.3829 33.5077C28.1173 33.828 27.9063 34.1015 27.922 34.1171C28.0079 34.203 32.3829 33.7577 34.2579 33.4765C36.0938 33.1874 37.9688 32.703 37.9688 32.4999C37.9688 32.3984 36.9532 32.0546 35.9923 31.8437C34.7423 31.5624 30.8438 31.0155 30.0782 31.0155C30.0391 31.0155 29.9063 31.203 29.797 31.4218Z" fill="white"/>
    <path d="M7.57812 31.2577C6.08594 31.4374 4.29688 31.7499 3.51562 31.953C2.74219 32.1639 2.03125 32.4217 2.03125 32.5077C2.03125 32.6639 3.51562 33.0858 4.99219 33.3514C6.59375 33.6405 10.8984 34.1249 11 34.0311C11.0156 34.0077 10.9219 33.8592 10.7812 33.6952C10.4766 33.3514 9.57812 31.9999 9.29688 31.4608C9.15625 31.203 9.05469 31.0936 8.94531 31.1014C8.85938 31.1092 8.24219 31.1796 7.57812 31.2577Z" fill="white"/>
    <path d="M3.98442 34.6094C4.36723 34.9531 5.17192 35.4141 5.86723 35.6875C6.66411 36.0078 7.45317 36.1719 8.51567 36.2422C9.25005 36.2969 9.49223 36.3438 9.81255 36.5078C10.4063 36.8125 10.6563 37.0547 10.9454 37.6172L11.211 38.125H20.0079H28.7969L28.9844 37.7188C29.211 37.2266 29.7032 36.7188 30.211 36.4844C30.4922 36.3516 30.8125 36.2891 31.4922 36.2422C33.3125 36.1172 34.6875 35.6328 35.9375 34.6797C36.2813 34.4219 36.3204 34.3672 36.1563 34.4062C30.7735 35.6562 17.5704 36 8.67192 35.1094C6.8438 34.9297 4.37505 34.5703 3.8438 34.4062C3.77348 34.3828 3.83598 34.4766 3.98442 34.6094Z" fill="white"/>
</svg>
