<svg width="40" height="40" viewBox="0 0 40 40" fill="none" xmlns="http://www.w3.org/2000/svg">
    <path d="M22.8984 0.0773926C21.0703 0.468018 19.5547 1.74927 19.0625 3.34302C18.8672 3.96802 18.8281 5.05396 18.9844 5.70239C19.3281 7.16333 20.6015 8.49927 22.1484 9.03052C22.9687 9.31177 24.1719 9.37427 25.0156 9.18677C27.2187 8.69458 28.8281 6.81177 28.8281 4.72583C28.8281 3.43677 28.414 2.46021 27.4687 1.51489C26.7734 0.81958 26.3437 0.553955 25.4687 0.25708C24.8125 0.0383301 23.5234 -0.0554199 22.8984 0.0773926Z" fill="white"/>
    <path d="M18.1641 13.6012C16.9141 13.734 15.3516 14.1793 12.961 15.0934L11.7344 15.5621L11.461 16.6637C11.3047 17.2731 11.1953 17.7809 11.211 17.7965C11.2266 17.8121 11.625 17.6949 12.1016 17.5465C13.6719 17.0387 15.2031 16.9918 16.1406 17.4293C16.8047 17.7418 17.1094 18.4606 17.1094 19.7106C17.1094 20.8981 16.8281 22.1246 15.3828 27.2106C14.2969 31.0621 14.0469 32.109 13.8985 33.4762C13.6641 35.6481 14.086 37.0778 15.3125 38.2887C16.5235 39.4918 17.9766 39.9684 20.3906 39.9528C21.9297 39.9528 22.586 39.8512 23.875 39.4137C25.1094 39.0074 27.6094 38.0387 27.7031 37.9371C27.7891 37.859 28.3047 35.7809 28.2578 35.734C28.25 35.7184 28 35.7965 27.711 35.8981C26.2422 36.4371 24.4766 36.5465 23.4844 36.1715C22.9531 35.9684 22.7031 35.7418 22.4688 35.234C22.3281 34.9293 22.3047 34.7418 22.3125 33.8278C22.3203 32.3824 22.4922 31.6012 23.8672 26.7184C25.1172 22.3043 25.2578 21.7418 25.3906 20.5856C25.711 17.8668 25.3828 16.5309 24.0703 15.234C23.5625 14.734 23.25 14.4918 22.8125 14.2809C21.5156 13.6403 19.9531 13.4137 18.1641 13.6012Z" fill="white"/>
</svg>
