<svg width="40" height="40" viewBox="0 0 40 40" fill="none" xmlns="http://www.w3.org/2000/svg">
    <path d="M18.5938 0.117188C17.8672 0.234375 16.6719 0.609375 16.0547 0.914062C14.7344 1.57031 13.3438 2.79688 12.5625 3.98438C12 4.84375 11.7891 5.26562 11.4922 6.17188C11.0313 7.53125 11.0156 7.82031 11.0156 14.0391V19.6875H9.94531C8.67188 19.6875 8.34375 19.7969 8.05469 20.3125L7.88281 20.625L7.91406 24.9844C7.95313 29.6484 7.96875 29.8203 8.39063 31.2578C9.72656 35.7969 13.4844 39.1016 18.1641 39.8516C18.9688 39.9844 21.0313 39.9844 21.8359 39.8516C26.5156 39.1016 30.2734 35.7969 31.6094 31.2578C32.0313 29.8203 32.0469 29.6484 32.0859 24.9844L32.1172 20.625L31.9453 20.3125C31.8281 20.1094 31.6563 19.9453 31.4453 19.8438C31.125 19.6875 30.9609 19.6875 22.2344 19.6875H13.3516L13.375 13.7656L13.3984 7.85156L13.6172 7.14844C14.3047 4.9375 15.9688 3.27344 18.1641 2.60938C18.7891 2.42188 18.9922 2.39844 20 2.39844C21.0078 2.39844 21.2109 2.42188 21.8359 2.60938C24.0313 3.27344 25.7109 4.95312 26.375 7.14844C26.5859 7.82812 26.5938 7.92969 26.625 10.0547L26.6563 12.2656H25.4844C24.4063 12.2656 24.3047 12.2812 24.0547 12.4453C23.3438 12.9219 23.3594 13.8594 24.0938 14.4062C24.2969 14.5625 24.4141 14.5703 26.25 14.5703C28.0859 14.5703 28.2031 14.5625 28.4063 14.4062C28.5234 14.3203 28.6953 14.1484 28.7813 14.0312C28.9375 13.8281 28.9453 13.7031 28.9688 11.1328C28.9922 8.10938 28.9297 7.42188 28.5078 6.17188C28.2109 5.26562 28 4.84375 27.4375 3.98438C26.6563 2.79688 25.2656 1.57031 23.9453 0.914062C22.4063 0.148438 20.3594 -0.15625 18.5938 0.117188ZM21.1406 25.3984C22.3516 25.8516 23.0859 26.9688 23.0859 28.3594C23.0859 28.9375 23.0547 29.0859 22.8359 29.5391C22.5391 30.1797 22.125 30.6484 21.5859 30.9531L21.1719 31.1875V32.4062C21.1719 33.5312 21.1563 33.6562 20.9922 33.9375C20.5469 34.7188 19.4531 34.7188 19.0078 33.9375C18.8438 33.6562 18.8281 33.5312 18.8281 32.4062V31.1875L18.4141 30.9531C16.6797 29.9688 16.375 27.5234 17.8203 26.0781C18.6719 25.2266 19.9688 24.9609 21.1406 25.3984Z" fill="white"/>
</svg>
