<svg width="703" height="600" viewBox="0 0 703 600" fill="none" xmlns="http://www.w3.org/2000/svg">
    <path d="M704 596C704 597.661 704 599.321 704 601C666.312 601 628.625 601 590.367 600.648C588.089 597.919 586.443 595.496 584.664 593.174C573.6 578.743 562.547 564.303 551.414 549.926C537.982 532.58 524.446 515.316 511.006 497.977C496.877 479.748 482.864 461.429 468.699 443.229C455.315 426.033 441.731 408.994 428.361 391.788C415.011 374.608 401.843 357.288 388.55 340.064C375.946 323.733 363.283 307.448 350.407 290.833C348.715 292.959 347.091 294.957 345.512 296.992C332.761 313.423 319.954 329.812 307.291 346.311C294.648 362.784 282.161 379.377 269.587 395.905C258.977 409.852 248.353 423.791 237.713 437.716C226.772 452.036 215.853 466.374 204.834 480.635C193.006 495.941 180.997 511.109 169.205 526.443C156.547 542.904 144.014 559.462 131.495 576.03C125.251 584.293 119.16 592.673 113 601C75.3333 601 37.6667 601 0 601C0 599.318 2.98023e-08 597.659 0.344624 595.416C2.44073 593.015 4.5798 591.435 5.87246 589.335C10.0834 582.491 13.9673 575.447 18.0095 568.499C26.6662 553.619 35.3459 538.752 44.0112 523.877C51.6256 510.805 59.2353 497.731 66.8435 484.656C75.5804 469.642 84.2923 454.613 93.0544 439.613C100.687 426.547 108.374 413.513 116.038 400.465C124.68 385.753 133.351 371.056 141.96 356.325C149.751 342.994 157.487 329.631 165.228 316.27C173.855 301.378 182.44 286.461 191.081 271.576C198.598 258.63 206.147 245.702 213.719 232.787C224.626 214.187 235.624 195.641 246.475 177.009C256.516 159.768 266.343 142.403 276.394 125.169C288.717 104.039 301.178 82.9889 313.574 61.9018C322.627 46.5026 331.73 31.1323 340.69 15.6787C343.654 10.5652 346.241 5.23249 349 0C349.444 1e-06 349.889 9.83477e-07 350.752 0.347092C357.774 11.7429 364.47 22.7385 370.965 33.8511C386.068 59.6917 400.973 85.649 416.152 111.445C429.628 134.346 443.48 157.027 456.958 179.928C471.161 204.059 485.008 228.399 499.207 252.532C516.355 281.678 533.804 310.648 550.95 339.795C567.105 367.256 582.986 394.878 599.081 422.374C615.672 450.715 632.373 478.99 649.032 507.291C665.692 535.595 682.324 563.916 699.109 592.145C700.1 593.811 702.341 594.732 704 596Z" fill="white"/>
</svg>
