<svg width="40" height="40" viewBox="0 0 40 40" fill="none" xmlns="http://www.w3.org/2000/svg">
    <rect x="0.5" y="0.5" width="39" height="39" rx="19.5" fill="black" stroke="#8E8E95"/>
    <path d="M20 25.8337C20.6903 25.8337 21.25 26.3933 21.25 27.0837C21.25 27.774 20.6903 28.3337 20 28.3337C19.3097 28.3337 18.75 27.774 18.75 27.0837C18.75 26.3933 19.3097 25.8337 20 25.8337ZM20 11.667C22.7614 11.667 25 13.9056 25 16.667C25 18.4708 24.3728 19.4092 22.7716 20.7696C21.1655 22.134 20.8333 22.7477 20.8333 24.167H19.1667C19.1667 22.1053 19.8225 21.088 21.6925 19.4994C22.9566 18.4255 23.3333 17.8618 23.3333 16.667C23.3333 14.826 21.8409 13.3337 20 13.3337C18.159 13.3337 16.6667 14.826 16.6667 16.667V17.5003H15V16.667C15 13.9056 17.2386 11.667 20 11.667Z" fill="#8E8E95"/>
</svg>
