<svg width="40" height="40" viewBox="0 0 40 40" fill="none" xmlns="http://www.w3.org/2000/svg">
    <g clip-path="url(#clip0_2822_1820)">
        <path d="M18.5157 0.0550461C15.5548 0.336296 13.3517 0.961296 10.8595 2.22692C7.90636 3.73473 5.25792 6.10973 3.32042 8.98473C2.99229 9.47692 2.42979 10.4769 2.07042 11.2113C0.75792 13.8675 0.13292 16.3754 0.0235448 19.3363C-0.0936427 22.6644 0.593857 25.8363 2.07823 28.8207C3.11729 30.9222 4.19542 32.4066 5.89073 34.1097C7.61729 35.8285 9.10948 36.8988 11.211 37.93C12.6798 38.6488 13.6251 39.0004 15.1173 39.3754C19.0235 40.3597 22.9454 40.1722 26.7579 38.8207C27.922 38.4066 29.9376 37.3988 30.9767 36.7035C33.8282 34.805 36.1876 32.1879 37.7423 29.18C39.1564 26.4613 39.8595 23.7582 39.9767 20.6644C40.0939 17.3363 39.4064 14.1644 37.922 11.18C36.9532 9.22692 35.8673 7.68786 34.3439 6.11755C32.6564 4.36755 31.0001 3.16442 28.7892 2.07067C26.4767 0.930046 24.3204 0.312859 21.7579 0.0784836C20.961 0.00817108 19.1564 -0.00745392 18.5157 0.0550461ZM10.8595 13.4457C12.5314 13.9066 13.586 15.0082 13.836 16.5394C13.922 17.0707 13.9142 17.1175 13.7423 17.4691C13.3985 18.1566 12.8282 18.3597 12.1876 18.0316C11.7892 17.8285 11.5939 17.5082 11.5235 16.93C11.422 16.141 10.6173 15.6254 9.50792 15.6254C8.81261 15.6254 8.43761 15.7269 8.1173 15.9925C7.82042 16.2504 7.65636 16.6097 7.65636 17.0238C7.65636 17.8754 8.02355 18.1644 10.0782 18.9066C10.7032 19.1332 11.4923 19.4613 11.836 19.6332C12.6095 20.0394 13.3282 20.7269 13.6173 21.3441C14.4532 23.1254 13.7501 25.305 12.0392 26.2035C11.3517 26.5629 10.6798 26.7191 9.79698 26.7191C8.44542 26.7191 7.29698 26.2738 6.43761 25.4222C5.88292 24.8675 5.58604 24.305 5.45323 23.5316C5.33604 22.8441 5.43761 22.4613 5.82042 22.1175C6.17979 21.805 6.54698 21.7425 6.99229 21.9144C7.42979 22.0785 7.64073 22.3754 7.73448 22.9222C7.82042 23.4535 7.89073 23.5863 8.2423 23.891C8.82823 24.4144 10.211 24.5394 10.9454 24.1332C11.711 23.7113 11.8673 22.6332 11.2423 22.0316C10.9923 21.7972 10.172 21.4144 9.02355 21.016C6.78917 20.2347 5.78136 19.3832 5.42198 17.9691C5.25792 17.3207 5.31261 16.3129 5.54698 15.6879C5.95323 14.5941 6.94542 13.7504 8.21105 13.4066C8.85948 13.2269 10.1564 13.2504 10.8595 13.4457ZM22.1876 13.5629C23.2657 14.0707 24.0392 15.0941 24.2189 16.2504C24.3204 16.9144 24.3204 23.0863 24.2189 23.7504C23.9767 25.305 22.7345 26.516 21.1642 26.7191C20.422 26.8129 19.4298 26.8129 18.6095 26.7191C17.1642 26.555 16.0392 25.641 15.6173 24.2894C15.4767 23.8519 15.4689 23.5238 15.4689 20.0082C15.4689 16.766 15.4845 16.141 15.5939 15.7738C15.9142 14.68 16.711 13.8441 17.8204 13.4379C18.2032 13.2972 18.422 13.2816 19.961 13.305L21.6798 13.3207L22.1876 13.5629ZM31.4454 13.3988C32.6642 13.7113 33.8126 14.5629 34.2423 15.4769C34.4923 16.0082 34.6485 16.8285 34.5782 17.2191C34.5079 17.6019 34.1251 18.0238 33.7423 18.1332C33.1329 18.3207 32.3985 17.8832 32.3048 17.2816C32.1642 16.3832 31.922 16.055 31.1876 15.7816C30.6017 15.555 29.5704 15.5785 29.1017 15.8285C28.3595 16.2113 28.1329 17.2035 28.6407 17.8129C28.9454 18.1644 29.3829 18.391 30.711 18.8754C33.2735 19.805 34.1954 20.555 34.5704 21.9925C34.8048 22.9144 34.6564 24.0785 34.1954 24.8597C33.922 25.3285 33.172 26.0082 32.6564 26.266C31.7189 26.7191 30.3751 26.8519 29.297 26.5941C27.6329 26.2035 26.422 25.0082 26.172 23.5082C26.0548 22.8363 26.1564 22.4457 26.5235 22.1175C26.9767 21.7191 27.5314 21.7035 28.0157 22.0707C28.2892 22.2816 28.4064 22.5238 28.4767 23.0863C28.5235 23.4144 28.586 23.5316 28.8751 23.805C29.3204 24.2347 29.8673 24.3988 30.6954 24.3597C31.3985 24.3285 31.797 24.1566 32.0939 23.766C32.2735 23.5316 32.3048 23.4144 32.3048 22.9769C32.3048 22.5707 32.2657 22.4066 32.1329 22.2191C31.9064 21.9066 31.1407 21.5082 29.9767 21.1019C28.3204 20.5238 27.2735 19.93 26.7814 19.2816C25.922 18.1566 25.7892 16.6566 26.4376 15.3519C26.8985 14.4144 27.8048 13.7035 28.922 13.4066C29.4845 13.2504 30.8595 13.2504 31.4454 13.3988Z" fill="white"/>
        <path d="M18.3594 15.75C18.25 15.8203 18.0938 15.9688 18.0078 16.0781C17.8594 16.2812 17.8516 16.4141 17.8516 20C17.8516 23.5859 17.8594 23.7188 18.0078 23.9219C18.3438 24.3672 18.5234 24.4141 19.8438 24.4141C21.2109 24.4141 21.4531 24.3438 21.7578 23.8281C21.9062 23.5625 21.9141 23.4375 21.9141 20C21.9141 16.0469 21.9219 16.1094 21.3828 15.7812C21.1641 15.6406 20.9844 15.625 19.8438 15.625C18.8125 15.625 18.5156 15.6562 18.3594 15.75Z" fill="white"/>
    </g>
    <defs>
        <clipPath id="clip0_2822_1820">
            <rect width="40" height="40" fill="white"/>
        </clipPath>
    </defs>
</svg>
