<svg width="40" height="40" viewBox="0 0 40 40" fill="none" xmlns="http://www.w3.org/2000/svg">
    <path d="M6.23437 1.89062L5.85938 2.35938L6.4375 2.82031C6.75781 3.07812 7.03125 3.28125 7.04687 3.28125C7.10937 3.28125 7.83594 2.33594 7.80469 2.30469C7.67969 2.1875 6.67187 1.40625 6.64062 1.41406C6.61719 1.41406 6.4375 1.625 6.23437 1.89062Z" fill="white"/>
    <path d="M8.64844 3.75781C8.44531 4.00781 8.28125 4.22656 8.28125 4.25C8.28125 4.27344 8.53906 4.5 8.85938 4.75781L9.4375 5.22656L9.79688 4.77344C9.99219 4.51562 10.1562 4.28125 10.1562 4.24219C10.1562 4.1875 9.60938 3.72656 9.14062 3.38281C9.03906 3.3125 8.96094 3.36719 8.64844 3.75781Z" fill="white"/>
    <path d="M11 5.70286L10.625 6.16379L11.2188 6.64817C11.5391 6.91379 11.8359 7.10129 11.8672 7.06223C12.3906 6.43723 12.5859 6.14817 12.5313 6.09348C12.3594 5.92942 11.4609 5.23411 11.4141 5.23411C11.3906 5.23411 11.2031 5.44504 11 5.70286Z" fill="white"/>
    <path d="M3.04688 7.5V8.125H3.78906H4.53125V7.5V6.875H3.78906H3.04688V7.5Z" fill="white"/>
    <path d="M6.09375 7.5V8.125H6.83594H7.57812V7.5V6.875H6.83594H6.09375V7.5Z" fill="white"/>
    <path d="M9.14062 7.5V8.125H9.88281H10.625V7.5V6.875H9.88281H9.14062V7.5Z" fill="white"/>
    <path d="M15 7.5V8.125H15.625H16.25V7.5V6.875H15.625H15V7.5Z" fill="white"/>
    <path d="M17.5 7.5V8.125H18.5547C19.5781 8.125 19.625 8.13281 19.8047 8.32031C20 8.50781 20 8.53125 20 9.88281V11.25H22.7656H25.5234L25.6641 10.8984C25.8359 10.4453 26.4531 9.76562 26.9062 9.52344C27.1094 9.42188 27.2656 9.29688 27.2656 9.24219C27.2656 9.1875 27.1953 8.95312 27.1016 8.71094C26.875 8.10938 26.2891 7.48438 25.6406 7.17188L25.1172 6.91406L21.3125 6.89062L17.5 6.86719V7.5Z" fill="white"/>
    <path d="M11.1875 8.36752L10.625 8.84408L10.9531 9.24252C11.1328 9.46908 11.3047 9.68002 11.3359 9.71908C11.375 9.75814 11.5938 9.64095 11.8359 9.44564C12.0781 9.25814 12.3516 9.0472 12.4375 8.97689C12.6016 8.85189 12.6016 8.84408 12.2266 8.39095C12.0234 8.13314 11.8359 7.9222 11.8047 7.91439C11.7812 7.90658 11.5 8.1097 11.1875 8.36752Z" fill="white"/>
    <path d="M17.4688 9.625C17.2578 11.0859 17.1562 11.5859 16.9219 12.3203C16.6094 13.2812 16.1172 14.2891 15.4062 15.4062C15.1406 15.8281 14.9219 16.1875 14.9219 16.2109C14.9219 16.2344 15.1484 16.25 15.4297 16.25H15.9297L16.6172 15.2891C17.4375 14.1406 17.9531 13.1797 18.2812 12.2109C18.5156 11.5 18.75 10.2422 18.75 9.66406V9.375H18.125H17.5078L17.4688 9.625Z" fill="white"/>
    <path d="M8.9531 10.1562C8.18748 10.7891 8.21091 10.7031 8.63279 11.2266C8.83591 11.4766 9.0156 11.6797 9.03123 11.6797C9.10154 11.6797 10.1562 10.8125 10.1562 10.7578C10.1562 10.7031 9.4531 9.75781 9.42185 9.77344C9.41404 9.77344 9.2031 9.94531 8.9531 10.1562Z" fill="white"/>
    <path d="M6.42188 12.1799L5.85938 12.6408L6.22656 13.1018C6.42969 13.3518 6.60156 13.5705 6.61719 13.5861C6.63281 13.6096 6.79688 13.4924 7.67969 12.8049C7.83594 12.6799 7.83594 12.6721 7.46094 12.1955C7.25781 11.9377 7.0625 11.719 7.03906 11.719C7.01562 11.7268 6.73438 11.9299 6.42188 12.1799Z" fill="white"/>
    <path d="M20.625 13.125V13.75H23.0469H25.4688V13.125V12.5H23.0469H20.625V13.125Z" fill="white"/>
    <path d="M20.5936 15.6016C20.4296 17.5781 20.1796 18.9766 19.7343 20.5078C19.3671 21.7656 18.953 22.8047 18.1249 24.5312C16.8983 27.1094 16.9374 26.875 16.8983 32.1562C16.8593 36.9609 16.8514 36.8281 17.3905 37.2344L17.6796 37.4609H22.8202C27.8905 37.4609 27.9608 37.4609 28.1718 37.2969C28.2889 37.2109 28.4608 37.0391 28.5468 36.9219C28.7108 36.7109 28.7108 36.6094 28.7343 32.2812C28.7577 27.5 28.7108 26.4766 28.3905 24.8203C28.2421 24.0625 26.2186 16.8672 25.6952 15.25L25.6093 15H23.1249H20.6405L20.5936 15.6016ZM25.1405 17.6562C25.2889 17.7969 25.3827 18.0469 25.9452 19.9141C26.1561 20.6094 26.1405 20.8906 25.8905 21.0859C25.6249 21.2969 25.3671 21.2969 25.1249 21.0703C24.9686 20.9375 24.8358 20.6016 24.5311 19.5938C24.3202 18.875 24.1405 18.1953 24.1405 18.0859C24.1405 17.8125 24.4686 17.5 24.7499 17.5C24.8671 17.5 25.0468 17.5703 25.1405 17.6562ZM26.4764 22.0859C26.7733 22.3906 26.953 23.1406 26.7889 23.4297C26.6405 23.6875 26.3202 23.8047 26.0389 23.7031C25.7655 23.6094 25.5468 23.1875 25.4921 22.6328C25.453 22.2422 25.4686 22.2031 25.6639 22.0469C25.953 21.8125 26.2186 21.8281 26.4764 22.0859ZM26.1249 26.3594C26.2655 26.4219 26.4843 26.6016 26.6093 26.7656L26.8358 27.0547V31.2578C26.8358 35.375 26.8358 35.4609 26.6718 35.6719C26.5858 35.7891 26.4139 35.9609 26.2968 36.0469C26.0858 36.2031 25.9921 36.2109 22.8202 36.2109H19.5546L19.2655 35.9844C18.7421 35.5859 18.7499 35.6797 18.7499 31.2578C18.7499 28.625 18.7811 27.2031 18.8358 27.0547C18.9452 26.7656 19.203 26.4844 19.4921 26.3594C19.8436 26.2031 25.7499 26.2031 26.1249 26.3594Z" fill="white"/>
    <path d="M20 31.25V35H22.8125H25.625V31.25V27.5H22.8125H20V31.25Z" fill="white"/>
</svg>
