<svg width="40" height="40" viewBox="0 0 40 40" fill="none" xmlns="http://www.w3.org/2000/svg">
    <g clip-path="url(#clip0_2822_1821)">
        <path d="M18.4375 0.203125C17.1562 0.359375 16.7188 0.421875 15.9141 0.585938C12.6094 1.26562 9.28125 2.92188 6.86719 5.08594C3.125 8.4375 0.9375 12.4922 0.1875 17.4219C-0.0078125 18.7031 -0.0078125 21.5781 0.1875 22.8125C0.9375 27.5859 2.88281 31.4141 6.14062 34.5234C8.875 37.1328 12.0078 38.8281 15.6406 39.6562C16.1016 39.7578 16.6094 39.8438 16.7734 39.8438C17.5781 39.8359 18.3594 39.0547 18.3594 38.2422C18.3594 37.7266 17.9609 37.0703 17.4922 36.8359C17.375 36.7734 16.9375 36.6484 16.5078 36.5547C10.0469 35.1641 5.04688 30.1797 3.63281 23.7109C3.35156 22.4375 3.26562 21.5234 3.26562 20C3.26562 17.4375 3.77344 15.2188 4.89062 12.8984C7.36719 7.75781 12.1094 4.33594 17.8906 3.50781C18.8828 3.36719 21.3516 3.39062 22.3828 3.54688C24.7109 3.90625 26.6953 4.625 28.6562 5.79688L29.2969 6.17969L28.5938 7.21094C28.2109 7.77344 27.8906 8.3125 27.8906 8.39844C27.8906 8.49219 27.9609 8.63281 28.0469 8.71094C28.1953 8.84375 28.3047 8.84375 31.0312 8.60156C32.5938 8.46094 33.9609 8.33594 34.0859 8.3125C34.4062 8.25 34.75 7.92188 34.8047 7.625C34.8438 7.42969 34.6562 6.64062 34.0625 4.52344C33.6328 2.96094 33.2188 1.625 33.1484 1.54688C32.9766 1.35156 32.7188 1.36719 32.5234 1.57812C32.4375 1.67969 32.1094 2.125 31.7969 2.57812C31.4844 3.03125 31.2031 3.42969 31.1719 3.46094C31.1406 3.5 30.9219 3.40625 30.6953 3.25781C28.4141 1.79688 25.6719 0.78125 22.8906 0.351562C22.1094 0.226562 19.0625 0.125 18.4375 0.203125Z" fill="white"/>
        <path d="M18.3516 7.36706C18.2109 7.46081 18.0078 7.66393 17.9141 7.80456L17.7344 8.07018V14.7577L17.7422 21.4452L23.6953 24.5155C27.0938 26.2733 29.7734 27.6092 29.9375 27.6327C30.3984 27.703 30.7578 27.5936 31.0547 27.3046C31.5703 26.7889 31.5859 25.9764 31.0859 25.4999C30.9609 25.3827 28.5 24.0624 25.6094 22.5702L20.3516 19.8514L20.3125 13.9217L20.2734 7.99206L20.0547 7.71081C19.9375 7.55456 19.7344 7.36706 19.6094 7.30456C19.2656 7.12487 18.6641 7.15612 18.3516 7.36706Z" fill="white"/>
        <path d="M36.4454 11.8671C35.8204 12.1484 35.4141 12.8359 35.4923 13.4687C35.5469 13.9374 36.0001 15.1327 36.2266 15.3984C36.8829 16.1796 38.1719 16.1171 38.7657 15.2734C39.1094 14.7812 39.1329 14.3202 38.8438 13.4843C38.4844 12.4687 38.2813 12.164 37.7969 11.9218C37.3204 11.6796 36.8829 11.664 36.4454 11.8671Z" fill="white"/>
        <path d="M37.9374 17.8911C37.6093 17.9927 37.2343 18.2739 37.0234 18.5786C36.8593 18.8286 36.8359 18.9536 36.8124 19.7973C36.7812 20.8364 36.8515 21.1958 37.164 21.563C37.8437 22.3755 39.1015 22.3052 39.7187 21.4223C39.9374 21.1177 39.9609 21.0239 39.9843 20.2973C40.0312 19.2036 39.914 18.7427 39.5077 18.3286C39.0546 17.8833 38.4999 17.727 37.9374 17.8911Z" fill="white"/>
        <path d="M36.7109 24.2811C36.289 24.5545 36.1718 24.7186 35.9062 25.4608C35.4843 26.6248 35.4999 27.1326 35.9531 27.6951C36.6718 28.5545 38.0702 28.4373 38.5702 27.4686C38.8046 27.0154 39.1406 25.9295 39.1406 25.6248C39.1406 24.7186 38.4531 24.0623 37.5156 24.0623C37.1484 24.0623 36.9921 24.1092 36.7109 24.2811Z" fill="white"/>
        <path d="M34.0157 29.7577C33.6563 29.9218 32.8438 30.8358 32.5782 31.3749C32.1016 32.3436 32.7579 33.5546 33.8126 33.6561C34.5547 33.7265 34.9766 33.4686 35.7344 32.4765C36.2501 31.8046 36.3985 31.328 36.2579 30.7968C36.1485 30.4061 35.7344 29.914 35.3594 29.7343C35.0079 29.5702 34.4141 29.578 34.0157 29.7577Z" fill="white"/>
        <path d="M29.3516 34.0941C28.3204 34.6487 27.8516 35.0706 27.672 35.6175C27.2501 36.8441 28.5938 38.0394 29.8126 37.5316C30.3126 37.3284 31.2813 36.6487 31.461 36.3831C31.6876 36.0472 31.7813 35.5862 31.7032 35.1566C31.6329 34.7503 31.4766 34.5237 31.0626 34.1878C30.8204 33.9847 30.6954 33.9456 30.2501 33.9222C29.8048 33.8987 29.672 33.9222 29.3516 34.0941Z" fill="white"/>
        <path d="M23.3984 36.5703C23.0547 36.6484 22.6953 36.7578 22.5938 36.8125C22.1406 37.0469 21.7266 37.6953 21.7188 38.1641C21.7188 39.0469 22.4766 39.8438 23.3203 39.8438C23.5938 39.8438 24.9297 39.5312 25.1484 39.4219C26.2891 38.8281 26.2969 37.1875 25.1641 36.5859C24.7422 36.3672 24.2656 36.3594 23.3984 36.5703Z" fill="white"/>
    </g>
    <defs>
        <clipPath id="clip0_2822_1821">
            <rect width="40" height="40" fill="white"/>
        </clipPath>
    </defs>
</svg>
