<svg width="40" height="40" viewBox="0 0 40 40" fill="none" xmlns="http://www.w3.org/2000/svg">
    <g clip-path="url(#clip0_2688_1679)">
        <path d="M5.7187 0.132812C5.38276 0.296875 5.0937 0.648438 5.03901 0.960938C4.99214 1.19531 8.70308 38.7422 8.80464 39.1016C8.88276 39.3828 9.23433 39.7812 9.49995 39.8906C9.89058 40.0547 30.1093 40.0547 30.5 39.8906C30.7656 39.7812 31.1171 39.3828 31.1953 39.1016C31.2265 39.0156 32.0937 30.4375 33.1328 20.0391C35.2421 -1.07812 35.1093 0.773438 34.5078 0.28125L34.2031 0.0390625L20.0937 0.0234375C7.2187 0.0078125 5.95308 0.015625 5.7187 0.132812ZM32.3437 2.67188C32.3359 3.03125 31.3515 12.6641 31.3125 12.6953C31.2968 12.7188 30.7968 12.8516 30.2109 13.0078C26.3593 13.9922 23.4765 13.5391 20.7812 11.5234C18.5703 9.86719 16.7031 9.17188 14.039 9.01562C12.664 8.9375 10.5859 9.17969 8.99214 9.61719C8.67964 9.70312 8.4062 9.75781 8.38276 9.74219C8.35933 9.71094 7.6562 2.90625 7.6562 2.63281C7.6562 2.50781 8.29683 2.5 20 2.5H32.3437V2.67188Z" fill="white"/>
    </g>
    <defs>
        <clipPath id="clip0_2688_1679">
            <rect width="40" height="40" fill="white"/>
        </clipPath>
    </defs>
</svg>
